<svg xmlns="http://www.w3.org/2000/svg" xmlns:xlink="http://www.w3.org/1999/xlink" viewBox="0 0 199.14 275"><defs><style>.cls-1{fill:url(#Безымянный_градиент_21);}.cls-2{fill:url(#Безымянный_градиент_85);}.cls-3{fill:url(#Безымянный_градиент_36);}.cls-4{fill:url(#Безымянный_градиент_41);}.cls-5{fill:url(#Безымянный_градиент_44);}.cls-6{fill:url(#Безымянный_градиент_54);}.cls-7{fill:url(#Безымянный_градиент_41-2);}.cls-8{fill:url(#Безымянный_градиент_44-2);}.cls-9{fill:url(#Безымянный_градиент_85-2);}.cls-10{fill:url(#Безымянный_градиент_36-2);}.cls-11{fill:url(#Безымянный_градиент_54-2);}.cls-12{fill:url(#Безымянный_градиент_55);}.cls-13{fill:url(#Безымянный_градиент_85-3);}.cls-14{fill:url(#Безымянный_градиент_83);}</style><linearGradient id="Безымянный_градиент_21" x1="79.17" y1="636.49" x2="138.97" y2="636.49" gradientTransform="translate(138.97 877.12) rotate(180)" gradientUnits="userSpaceOnUse"><stop offset="0" stop-color="#80cbc4"/><stop offset="1" stop-color="#4db6ac"/></linearGradient><linearGradient id="Безымянный_градиент_85" x1="64.45" y1="205.38" x2="124.24" y2="205.38" gradientTransform="matrix(-1, 0, 0, 1, 124.24, -33.5)" gradientUnits="userSpaceOnUse"><stop offset="0" stop-color="#4db6ac"/><stop offset="1" stop-color="#26a69a"/></linearGradient><linearGradient id="Безымянный_градиент_36" x1="8.14" y1="671.9" x2="67.93" y2="671.9" gradientTransform="matrix(1, 0, 0, -1, -8.14, 843.78)" gradientUnits="userSpaceOnUse"><stop offset="0" stop-color="#26a69a"/><stop offset="1" stop-color="#009688"/></linearGradient><linearGradient id="Безымянный_градиент_41" x1="47.21" y1="203.3" x2="-12.59" y2="203.3" gradientTransform="translate(12.59 -100.17)" gradientUnits="userSpaceOnUse"><stop offset="0" stop-color="#009688"/><stop offset="1" stop-color="#00897b"/></linearGradient><linearGradient id="Безымянный_градиент_44" x1="155.88" y1="731.15" x2="96.09" y2="731.15" gradientTransform="translate(155.88 834.28) rotate(180)" gradientUnits="userSpaceOnUse"><stop offset="0" stop-color="#00897b"/><stop offset="1" stop-color="#00796b"/></linearGradient><linearGradient id="Безымянный_градиент_54" x1="54.63" y1="209.72" x2="114.42" y2="209.72" gradientTransform="matrix(-1, 0, 0, 1, 114.42, -175.34)" gradientUnits="userSpaceOnUse"><stop offset="0" stop-color="#00796b"/><stop offset="1" stop-color="#00695c"/></linearGradient><linearGradient id="Безымянный_градиент_41-2" x1="39.92" y1="203.3" x2="-19.88" y2="203.3" gradientTransform="matrix(-1, 0, 0, 1, 179.26, -100.17)" xlink:href="#Безымянный_градиент_41"/><linearGradient id="Безымянный_градиент_44-2" x1="163.17" y1="731.15" x2="103.38" y2="731.15" gradientTransform="matrix(1, 0, 0, -1, 35.96, 834.28)" xlink:href="#Безымянный_градиент_44"/><linearGradient id="Безымянный_градиент_85-2" x1="15.65" y1="698.24" x2="75.45" y2="698.24" gradientTransform="translate(135.24 870.12) rotate(180)" xlink:href="#Безымянный_градиент_85"/><linearGradient id="Безымянный_градиент_36-2" x1="56.93" y1="179.05" x2="116.73" y2="179.05" gradientTransform="translate(2.86 -7.17)" xlink:href="#Безымянный_градиент_36"/><linearGradient id="Безымянный_градиент_54-2" x1="32.67" y1="812.07" x2="92.47" y2="812.07" gradientTransform="translate(152.26 846.45) rotate(180)" xlink:href="#Безымянный_градиент_54"/><linearGradient id="Безымянный_градиент_55" x1="14.95" y1="184.72" x2="74.75" y2="184.72" gradientTransform="translate(44.84 -150.34)" gradientUnits="userSpaceOnUse"><stop offset="0" stop-color="#00695c"/><stop offset="1" stop-color="#004d40"/></linearGradient><linearGradient id="Безымянный_градиент_85-3" x1="-185.46" y1="432.57" x2="-116.7" y2="432.57" gradientTransform="translate(601.81 322.97) rotate(90)" xlink:href="#Безымянный_градиент_85"/><linearGradient id="Безымянный_градиент_83" x1="249.88" y1="470.41" x2="318.65" y2="470.41" gradientTransform="matrix(0, -1, -1, 0, 639.65, 318.65)" xlink:href="#Безымянный_градиент_55"/></defs><title>Ресурс 2</title><g id="Слой_2" data-name="Слой 2"><g id="Слой_1-2" data-name="Слой 1"><polygon class="cls-1" points="59.79 275 59.79 206.25 0 206.25 59.79 275"/><polygon class="cls-2" points="59.79 137.5 59.79 206.25 0 206.25 59.79 137.5"/><polygon class="cls-3" points="0 206.25 0 137.5 59.79 137.5 0 206.25"/><polygon class="cls-4" points="0 68.76 0 137.5 59.79 137.5 0 68.76"/><polygon class="cls-5" points="59.79 137.5 59.79 68.76 0 68.76 59.79 137.5"/><polygon class="cls-6" points="59.79 0.01 59.79 68.76 0 68.76 59.79 0.01"/><polygon class="cls-7" points="199.13 68.76 199.13 137.5 139.34 137.5 199.13 68.76"/><polygon class="cls-8" points="139.34 137.5 139.34 68.76 199.13 68.76 139.34 137.5"/><polygon class="cls-9" points="119.59 206.25 119.59 137.5 59.79 137.5 119.59 206.25"/><polygon class="cls-10" points="59.79 137.5 59.79 206.25 119.59 206.25 59.79 137.5"/><polygon class="cls-11" points="119.59 68.76 119.59 0.01 59.79 0.01 119.59 68.76"/><polygon class="cls-12" points="59.79 0.01 59.79 68.76 119.59 68.76 59.79 0.01"/><path class="cls-13" d="M139.34,137.5v68.76c15.85,0,31.07-7.25,42.28-20.14s17.51-30.39,17.51-48.62Z"/><path class="cls-14" d="M139.34,68.76V0c15.85,0,31.07,7.25,42.28,20.14s17.51,30.39,17.51,48.62Z"/></g></g></svg>